<?xml version="1.0" encoding="UTF-8"?>
<svg version="1.1" xmlns="http://www.w3.org/2000/svg" width="721" height="232">
<path d="M0 0 C237.93 0 475.86 0 721 0 C721 76.56 721 153.12 721 232 C483.07 232 245.14 232 0 232 C0 155.44 0 78.88 0 0 Z " fill="#682334" transform="translate(0,0)"/>
<path d="M0 0 C0.62438965 0.25700684 1.2487793 0.51401367 1.89208984 0.77880859 C10.71812781 4.53373569 17.93250732 9.5675233 25 16 C25.64066406 16.57105469 26.28132812 17.14210938 26.94140625 17.73046875 C29.98292698 20.58143638 31.7174755 23.04554945 33 27 C33.66 27.99 34.32 28.98 35 30 C35.69313908 31.65583225 36.36474424 33.32110979 37 35 C37.99 35 38.98 35 40 35 C40.96380382 37.18522816 41.92109439 39.37295386 42.875 41.5625 C43.14441406 42.17158203 43.41382813 42.78066406 43.69140625 43.40820312 C46.42327195 49.70482042 48.28115876 55.48843498 48.125 62.4375 C48.10695312 63.48808594 48.08890625 64.53867188 48.0703125 65.62109375 C48.04710937 66.40613281 48.02390625 67.19117187 48 68 C48.639375 68.144375 49.27875 68.28875 49.9375 68.4375 C52 69 52 69 53 70 C54.74014609 89.09188853 48.51451438 107.89898198 36.5625 122.875 C35.05993355 124.5994219 33.54015254 126.30906329 32 128 C31.38640625 128.70640625 30.7728125 129.4128125 30.140625 130.140625 C17.2046694 144.18221783 -3.08010181 152.93143432 -22 154 C-23.68996094 154.09667969 -23.68996094 154.09667969 -25.4140625 154.1953125 C-46.18085628 154.80971468 -65.22983931 148.76304933 -81 135 C-81.97259766 134.2575 -81.97259766 134.2575 -82.96484375 133.5 C-93.29919072 125.31437864 -100.32261609 113.13196452 -105 101 C-105.4125 99.97132813 -105.825 98.94265625 -106.25 97.8828125 C-112.21396862 80.61215336 -110.64956836 58.24541725 -103.34375 41.5859375 C-93.31598856 22.28832682 -78.58289785 6.79414216 -58 -1 C-57.19691406 -1.30550781 -56.39382812 -1.61101563 -55.56640625 -1.92578125 C-38.2521151 -8.08651554 -16.85147264 -7.01451848 0 0 Z " fill="#692335" transform="translate(150,48)"/>
<path d="M0 0 C0 0.99 0 1.98 0 3 C-1.11375 3.9590625 -1.11375 3.9590625 -2.25 4.9375 C-6.46589036 8.80506894 -7.47926394 14.67317593 -9 20 C-8.38616455 19.98187256 -7.7723291 19.96374512 -7.13989258 19.94506836 C-1.12488303 19.84459812 4.42846778 20.33994558 10.3125 21.5625 C11.15482178 21.73450928 11.99714355 21.90651855 12.86499023 22.08374023 C19.5559881 23.52892675 26.06117143 25.42735652 32.5625 27.5625 C33.46073486 27.85519775 34.35896973 28.14789551 35.28442383 28.44946289 C36.11997803 28.7355542 36.95553223 29.02164551 37.81640625 29.31640625 C38.55318604 29.56849854 39.28996582 29.82059082 40.04907227 30.08032227 C42.22839733 31.10766772 43.49713488 32.12149197 45 34 C45.1875 36.6875 45.1875 36.6875 45 39 C40.1969785 38.44952776 36.12870328 37.41516765 31.625 35.6875 C17.80094411 30.731604 2.5587577 29.30129632 -12 28 C-12.15855469 28.680625 -12.31710937 29.36125 -12.48046875 30.0625 C-15.57774197 42.93072908 -19.74850886 55.45943135 -24.0324707 67.97314453 C-25.90617953 73.50255099 -27.1409883 78.4258774 -27.0625 84.3125 C-27.05347656 85.19550781 -27.04445313 86.07851562 -27.03515625 86.98828125 C-27.02355469 87.65214844 -27.01195312 88.31601563 -27 89 C-24.64632287 89.6878236 -24.64632287 89.6878236 -22 90 C-18.29534424 87.53022949 -18.35134453 86.13352443 -17 82 C-14.58010745 77.7443269 -12.5925498 74.87877037 -8 73 C-4.40175755 72.49201283 -1.18149165 72.31974723 2.0625 74.1875 C3.38135516 76.73728665 2.7975116 78.31746098 2 81 C0.02 81 -1.96 81 -4 81 C-4.25015873 84.41642759 -4.25015873 84.41642759 -4 88 C-1.19333909 90.28441618 -1.19333909 90.28441618 1.9375 89.9375 C5.06326423 89.18314213 5.06326423 89.18314213 7.375 87.125 C9.81985338 82.42335888 9.73181685 78.19376815 9 73 C8.16208257 70.5238225 7.18028887 68.28836754 5.97265625 65.97265625 C4.99570427 63.99128777 4.45792106 62.15463909 4 60 C3.25556641 60.72316406 3.25556641 60.72316406 2.49609375 61.4609375 C-1.89057483 65.53962366 -5.08778448 67.89145959 -11 69 C-9.51450849 61.16275168 -9.51450849 61.16275168 -6.18359375 58.60546875 C-4.66953864 57.83896142 -3.13929275 57.10393471 -1.59765625 56.39453125 C1.54621578 54.70676837 3.90573779 52.56343616 6.5625 50.1875 C12.24388553 45.39059384 12.24388553 45.39059384 16.5 45.3125 C20 46 20 46 23 48 C23 49.32 23 50.64 23 52 C22.360625 52.12375 21.72125 52.2475 21.0625 52.375 C20.381875 52.58125 19.70125 52.7875 19 53 C17.48271217 56.03457567 17.46012481 58.72011307 18 62 C19.13224085 64.93074617 20.42587717 67.72629074 21.80859375 70.546875 C23.62782418 74.29270027 24.11597942 77.06958484 24.0625 81.1875 C24.05347656 82.08855469 24.04445313 82.98960938 24.03515625 83.91796875 C24.01775391 84.94857422 24.01775391 84.94857422 24 86 C26.79285592 83.36230274 29.06336342 80.90404968 31.1875 77.6875 C31.785625 76.800625 32.38375 75.91375 33 75 C33.66 75 34.32 75 35 75 C33.97922312 83.91216736 28.33826528 91.45829972 21.88671875 97.50390625 C12.55920328 104.9002591 2.76765426 107.13204275 -9 106 C-13.56459967 103.87510016 -16.07187991 101.05432012 -19 97 C-19.7425 98.11375 -19.7425 98.11375 -20.5 99.25 C-24.52399514 103.67639466 -28.7375166 105.64892499 -34.625 106.5625 C-38.83477739 105.86087044 -41.53225198 104.4532704 -44 101 C-45.03647873 98.03438145 -45.60672587 95.11229014 -46 92 C-46.56267578 92.90492188 -46.56267578 92.90492188 -47.13671875 93.828125 C-53.35732871 103.54293148 -53.35732871 103.54293148 -58.875 105.75 C-66.87654321 106.69135802 -66.87654321 106.69135802 -71.25 104 C-74.61482092 100.87809396 -75.68083153 97.3239411 -77 93 C-77.61875 93.90492188 -77.61875 93.90492188 -78.25 94.828125 C-82.98116053 101.37571323 -87.07679507 105.11382311 -95.125 106.5625 C-99.03323938 105.79784447 -101.48952636 103.99183289 -104 101 C-105.2732841 98.69187452 -106.11733471 96.50088499 -107 94 C-107.35191406 94.53109375 -107.70382812 95.0621875 -108.06640625 95.609375 C-111.84304315 101.01302258 -115.22833394 105.12580164 -122.046875 106.375 C-125.70095594 106.59479434 -127.82571714 106.10753623 -130.9375 104.1875 C-134.35188207 100.56618568 -134.39344555 96.96857027 -134.3515625 92.21484375 C-133.32063532 82.78758744 -129.88915106 73.36848586 -125.78125 64.87109375 C-124.55883424 61.94340801 -124.26791584 59.14801114 -124 56 C-134.85012813 60.0422046 -140.05656361 68.70013445 -144.9375 78.8125 C-148.90013094 87.64170423 -151.91210291 96.83680243 -155 106 C-159.62 106 -164.24 106 -169 106 C-168.47916667 103.72135417 -167.95833333 101.44270833 -167.4375 99.1640625 C-166.93394761 97.04125049 -166.93394761 97.04125049 -167 95 C-167.40089844 95.45890625 -167.80179687 95.9178125 -168.21484375 96.390625 C-173.93123007 102.56069278 -179.64170375 106.1022227 -188.1875 106.5 C-192.83310257 106.26952049 -195.5553815 105.28058904 -199 102 C-201.57225505 97.920165 -203.22803224 93.46877833 -205 89 C-205.51949219 89.74765625 -206.03898437 90.4953125 -206.57421875 91.265625 C-207.27160156 92.25046875 -207.96898437 93.2353125 -208.6875 94.25 C-209.37199219 95.22453125 -210.05648437 96.1990625 -210.76171875 97.203125 C-214.14721108 101.43351332 -217.74784654 104.49938473 -223 106 C-226.94098637 106.42224854 -229.21912241 106.40818601 -232.75 104.5625 C-235.81095856 101.0764083 -236.83492143 97.43298187 -238 93 C-238.43570312 93.60328125 -238.87140625 94.2065625 -239.3203125 94.828125 C-247.09947004 105.26768706 -247.09947004 105.26768706 -252.9765625 106.37109375 C-256.5938347 106.59463304 -258.78464702 106.13108443 -261.875 104.25 C-267.08811675 98.73022933 -266.4796393 92.57930969 -266.30859375 85.3984375 C-265.74026697 74.41393064 -260.70668475 64.07885984 -253.203125 56.0859375 C-247.3946061 50.86855105 -242.21977879 48.46565524 -234.34765625 48.703125 C-231.29713012 49.08888205 -229.32147735 49.98805296 -227 52 C-227 52.66 -227 53.32 -227 54 C-226.34 54 -225.68 54 -225 54 C-225 53.01 -225 52.02 -225 51 C-215.595 50.01 -215.595 50.01 -206 49 C-206 49.99 -206 50.98 -206 52 C-206.75925781 52.73476562 -207.51851563 53.46953125 -208.30078125 54.2265625 C-211.32829049 57.3373173 -212.72314119 60.37910581 -214.1875 64.375 C-214.43435547 65.00921875 -214.68121094 65.6434375 -214.93554688 66.296875 C-217.21182413 72.24554623 -219.30167724 77.98878079 -219.125 84.4375 C-219.10695313 85.30246094 -219.08890625 86.16742188 -219.0703125 87.05859375 C-219.04710937 87.69925781 -219.02390625 88.33992188 -219 89 C-216.80485127 89.9593157 -216.80485127 89.9593157 -214 90 C-209.30669438 86.90241829 -207.20542171 84.24865724 -205 79 C-204.49950243 76.25560502 -204.09353347 73.57409706 -203.75 70.8125 C-200.97901081 52.16709568 -193.21462651 32.03861104 -178 20 C-172.69298978 16.36506149 -168.38924686 15.27863342 -162 16 C-158.20011341 17.29052752 -156.49493007 18.32359557 -154.125 21.5625 C-150.5432379 32.5067731 -154.69930287 42.77365803 -159.6875 52.625 C-165.25114081 62.38255278 -173.23965428 71.2244401 -184 75 C-187.4375 75.1875 -187.4375 75.1875 -190 75 C-189.57533503 76.77395508 -189.1347591 78.54410631 -188.6875 80.3125 C-188.44386719 81.29863281 -188.20023437 82.28476563 -187.94921875 83.30078125 C-186.97938753 86.05861406 -186.32844026 87.28165587 -184 89 C-177.97016224 90.43080896 -173.38838349 90.23079425 -168 87 C-159.37790007 79.82816112 -157.18192021 67.71049124 -154.05078125 57.44140625 C-153.39275184 55.28629878 -152.71256515 53.13769545 -152 51 C-151.05898438 50.93941406 -150.11796875 50.87882812 -149.1484375 50.81640625 C-147.90320313 50.73261719 -146.65796875 50.64882812 -145.375 50.5625 C-144.14523437 50.48128906 -142.91546875 50.40007812 -141.6484375 50.31640625 C-138.38467612 50.03336056 -135.22056141 49.58961047 -132 49 C-132 49.99 -132 50.98 -132 52 C-133.66666667 53.33333333 -135.33333333 54.66666667 -137 56 C-137 56.99 -137 57.98 -137 59 C-136.278125 58.2575 -135.55625 57.515 -134.8125 56.75 C-130.05214428 52.09542996 -126.91209247 49.23484617 -120.125 48.6875 C-117.24445998 48.76721974 -115.73668395 49.10971502 -113 50.25 C-109.59228239 54.93561171 -110.13404342 59.42135458 -111 65 C-112.08988718 68.93352566 -113.41759528 72.77663577 -114.86450195 76.59228516 C-116.62295704 81.31105844 -117.31963286 84.95912345 -117 90 C-113.06870071 89.81714887 -111.36072755 89.33433285 -108.4375 86.625 C-100.75956906 76.24875467 -97.43778836 62.2441777 -94 50 C-93.13117188 50.01160156 -92.26234375 50.02320313 -91.3671875 50.03515625 C-90.21476563 50.04417969 -89.06234375 50.05320313 -87.875 50.0625 C-86.73804688 50.07410156 -85.60109375 50.08570313 -84.4296875 50.09765625 C-81.1870844 50.005327 -78.18067388 49.61389906 -75 49 C-75 49.99 -75 50.98 -75 52 C-75.75925781 52.73476562 -76.51851562 53.46953125 -77.30078125 54.2265625 C-80.32829049 57.3373173 -81.72314119 60.37910581 -83.1875 64.375 C-83.43435547 65.00921875 -83.68121094 65.6434375 -83.93554688 66.296875 C-86.29046905 72.45107161 -88.2896605 78.26874964 -88.125 84.9375 C-88.10695313 85.89527344 -88.08890625 86.85304688 -88.0703125 87.83984375 C-88.04710937 88.55269531 -88.02390625 89.26554687 -88 90 C-83.83780095 89.90090002 -82.20052129 89.17918924 -79.0625 86.375 C-72.28479703 77.72942613 -64.50819467 62.05578371 -65 51 C-62.07542606 50.02514202 -60.34185911 49.92390935 -57.3125 50 C-52.76887281 50.05337594 -48.49168768 49.66543521 -44 49 C-44 49.99 -44 50.98 -44 52 C-44.99 52.33 -45.98 52.66 -47 53 C-54.06401148 64.09520737 -57.83633526 75.89741423 -57 89 C-54.61926519 89.65762722 -54.61926519 89.65762722 -52 90 C-41.58331381 82.78844802 -38.34361301 65.62611865 -34.75 54.1875 C-34.2170172 52.51860168 -33.68316788 50.84997983 -33.1484375 49.18164062 C-31.00762972 42.47813101 -28.90414541 35.77504713 -27 29 C-33.40667058 28.79744718 -39.32950535 29.52555782 -45.625 30.6875 C-47.0776123 30.94998535 -47.0776123 30.94998535 -48.55957031 31.21777344 C-55.4021726 32.52340484 -61.52416612 34.49979644 -68.015625 37.015625 C-73.96487346 38.97794256 -78.86829394 38.88208527 -84.625 36.5 C-85.40875 36.005 -86.1925 35.51 -87 35 C-87 33.35 -87 31.7 -87 30 C-78.21210322 26.73751067 -69.40509382 24.25678943 -60.25 22.25 C-59.30503662 22.03964111 -58.36007324 21.82928223 -57.38647461 21.61254883 C-48.22077278 19.66434914 -39.17382735 18.85161626 -29.8125 18.9375 C-28.51957031 18.94652344 -27.22664062 18.95554687 -25.89453125 18.96484375 C-24.93933594 18.97644531 -23.98414063 18.98804687 -23 19 C-21.82877141 13.34853777 -20.74660712 7.72398793 -20 2 C-16.5094945 0.83649817 -13.66796817 1 -10 1 C-6.55890354 0.34455305 -3.51751051 -0.1005003 0 0 Z " fill="#F5E4D7" transform="translate(630,38)"/>
<path d="M0 0 C4.21734733 0.51640988 5.40368391 2.13071613 8.0625 5.375 C14.30966398 29.69771459 -10.01395393 64.55722879 -21.76416016 84.47070312 C-27.37771017 93.84071079 -33.13881644 103.11878362 -38.9375 112.375 C-43.42743869 111.78847648 -47.16293184 110.6106462 -51.3125 108.8125 C-52.37210937 108.35746094 -53.43171875 107.90242188 -54.5234375 107.43359375 C-55.32007813 107.08425781 -56.11671875 106.73492187 -56.9375 106.375 C-56.33936618 102.18183267 -55.33500432 98.4296355 -53.9375 94.4375 C-49.38236656 79.74884505 -50.81457485 63.59691634 -50.9375 48.375 C-51.2684668 49.1278125 -51.59943359 49.880625 -51.94042969 50.65625 C-57.84974023 64.06099022 -63.81374198 77.43055587 -70.3125 90.5625 C-70.77495117 91.50931641 -71.23740234 92.45613281 -71.71386719 93.43164062 C-80.26436793 110.48395598 -80.26436793 110.48395598 -85.9375 112.375 C-87.93041992 111.57055664 -87.93041992 111.57055664 -90.16796875 110.28515625 C-90.97041016 109.83076172 -91.77285156 109.37636719 -92.59960938 108.90820312 C-93.43298828 108.42287109 -94.26636719 107.93753906 -95.125 107.4375 C-95.96998047 106.95603516 -96.81496094 106.47457031 -97.68554688 105.97851562 C-99.77488489 104.7862945 -101.85836675 103.58490182 -103.9375 102.375 C-102.88401283 99.0699422 -101.74160577 95.83145699 -100.421875 92.625 C-91.83052524 71.69041333 -85.83676882 49.66916099 -85.5625 26.9375 C-85.54848145 26.13803955 -85.53446289 25.3385791 -85.52001953 24.51489258 C-85.54701482 21.30972133 -85.74257577 18.78466043 -87.12890625 15.87109375 C-90.25406936 13.28591563 -93.32080852 13.83822461 -97.2109375 13.9921875 C-102.52603872 14.7384338 -105.06963758 17.24912442 -108.25 21.375 C-110.64061103 25.62497517 -111.10748418 29.020707 -111.1875 33.875 C-111.21328125 34.8134375 -111.2390625 35.751875 -111.265625 36.71875 C-110.88083891 39.83368504 -110.11042638 41.14115045 -107.9375 43.375 C-106.4525 43.87 -106.4525 43.87 -104.9375 44.375 C-106.65612468 50.05968165 -109.1016675 55.35923881 -111.5625 60.75 C-111.98273438 61.67683594 -112.40296875 62.60367188 -112.8359375 63.55859375 C-113.86714882 65.83194599 -114.90106863 68.10402406 -115.9375 70.375 C-122.6059964 69.58582883 -126.33758127 67.97491873 -131.125 63.1875 C-135.87558419 55.81590384 -137.03117287 48.22487815 -135.43359375 39.6796875 C-132.6557098 28.28242648 -127.23552601 18.91487549 -117.10546875 12.61328125 C-106.76831398 7.13286415 -96.19364526 4.53166605 -84.75 7.625 C-78.62403882 9.67635397 -75.4396956 12.11077516 -72.328125 17.80859375 C-69.50634176 23.58801809 -69.28014763 28.5312785 -69.5 34.875 C-69.51885254 35.91946289 -69.53770508 36.96392578 -69.55712891 38.04003906 C-69.88878065 51.35087161 -71.70393042 64.26956473 -73.9375 77.375 C-66.99195838 63.923508 -60.34199009 50.41296305 -54.375 36.5 C-53.88741211 35.36788086 -53.39982422 34.23576172 -52.89746094 33.06933594 C-49.88163418 25.94273765 -47.26953807 18.75326539 -44.9375 11.375 C-40.71338481 12.12964178 -37.44946253 13.46222814 -33.625 15.4375 C-32.02205078 16.25927734 -32.02205078 16.25927734 -30.38671875 17.09765625 C-29.57847656 17.51917969 -28.77023437 17.94070312 -27.9375 18.375 C-28.07027344 18.98085938 -28.20304687 19.58671875 -28.33984375 20.2109375 C-28.51644531 21.04882812 -28.69304687 21.88671875 -28.875 22.75 C-29.04902344 23.56210938 -29.22304688 24.37421875 -29.40234375 25.2109375 C-31.24651213 36.1144148 -31.05412314 46.97726041 -31 58 C-30.9949755 59.785155 -30.99041428 61.57031136 -30.98632812 63.35546875 C-30.97539651 67.6953467 -30.9581841 72.03515802 -30.9375 76.375 C-24.67441208 66.95086287 -18.70420992 57.49985663 -13.875 47.25 C-13.51801025 46.49420654 -13.16102051 45.73841309 -12.79321289 44.9597168 C-8.25586355 35.05518807 -4.60764568 25.09701873 -7.546875 14.09375 C-8.70847137 11.2964363 -10.2588833 8.89292505 -11.9375 6.375 C-7.79932901 1.89198143 -5.83669556 0.74511007 0 0 Z " fill="#F6E5D7" transform="translate(368.9375,41.625)"/>
<path d="M0 0 C3.41915557 2.38545737 4.38783503 3.90380148 5.6875 7.875 C7.38053001 19.60080044 2.04392867 31.28435322 -4.3125 40.875 C-10.23654502 48.29575604 -16.18386081 54.67196871 -25.3125 57.875 C-28.75 58.0625 -28.75 58.0625 -31.3125 57.875 C-30.88783503 59.64895508 -30.4472591 61.41910631 -30 63.1875 C-29.75636719 64.17363281 -29.51273437 65.15976563 -29.26171875 66.17578125 C-28.29188753 68.93361406 -27.64094026 70.15665587 -25.3125 71.875 C-19.28266224 73.30580896 -14.70088349 73.10579425 -9.3125 69.875 C-0.69040007 62.70316112 1.50557979 50.58549124 4.63671875 40.31640625 C5.29474816 38.16129878 5.97493485 36.01269545 6.6875 33.875 C7.62851562 33.81441406 8.56953125 33.75382812 9.5390625 33.69140625 C10.78429687 33.60761719 12.02953125 33.52382812 13.3125 33.4375 C14.54226563 33.35628906 15.77203125 33.27507812 17.0390625 33.19140625 C20.30282388 32.90836056 23.46693859 32.46461047 26.6875 31.875 C26.6875 32.865 26.6875 33.855 26.6875 34.875 C25.90375 35.473125 25.12 36.07125 24.3125 36.6875 C21.25706827 39.23369311 20.63667937 41.07828252 19.6875 44.875 C20.6775 44.875 21.6675 44.875 22.6875 44.875 C21.48577943 47.37331383 20.17960995 49.76538816 18.8046875 52.17578125 C12.18714968 63.91274254 7.82538308 76.07800464 3.6875 88.875 C-0.9325 88.875 -5.5525 88.875 -10.3125 88.875 C-9.79166667 86.59635417 -9.27083333 84.31770833 -8.75 82.0390625 C-8.24644761 79.91625049 -8.24644761 79.91625049 -8.3125 77.875 C-8.71339844 78.33390625 -9.11429687 78.7928125 -9.52734375 79.265625 C-15.24373007 85.43569278 -20.95420375 88.9772227 -29.5 89.375 C-34.14560257 89.14452049 -36.8678815 88.15558904 -40.3125 84.875 C-42.88475505 80.795165 -44.54053224 76.34377833 -46.3125 71.875 C-46.83199219 72.62265625 -47.35148437 73.3703125 -47.88671875 74.140625 C-48.58410156 75.12546875 -49.28148437 76.1103125 -50 77.125 C-50.68449219 78.09953125 -51.36898437 79.0740625 -52.07421875 80.078125 C-55.45971108 84.30851332 -59.06034654 87.37438473 -64.3125 88.875 C-68.25348637 89.29724854 -70.53162241 89.28318601 -74.0625 87.4375 C-77.12345856 83.9514083 -78.14742143 80.30798187 -79.3125 75.875 C-79.74820312 76.47828125 -80.18390625 77.0815625 -80.6328125 77.703125 C-88.41197004 88.14268706 -88.41197004 88.14268706 -94.2890625 89.24609375 C-97.9063347 89.46963304 -100.09714702 89.00608443 -103.1875 87.125 C-108.40061675 81.60522933 -107.7921393 75.45430969 -107.62109375 68.2734375 C-107.05276697 57.28893064 -102.01918475 46.95385984 -94.515625 38.9609375 C-88.7071061 33.74355105 -83.53227879 31.34065524 -75.66015625 31.578125 C-72.60963012 31.96388205 -70.63397735 32.86305296 -68.3125 34.875 C-68.3125 35.535 -68.3125 36.195 -68.3125 36.875 C-67.6525 36.875 -66.9925 36.875 -66.3125 36.875 C-66.3125 35.885 -66.3125 34.895 -66.3125 33.875 C-56.9075 32.885 -56.9075 32.885 -47.3125 31.875 C-47.3125 32.865 -47.3125 33.855 -47.3125 34.875 C-48.07175781 35.60976562 -48.83101563 36.34453125 -49.61328125 37.1015625 C-52.64079049 40.2123173 -54.03564119 43.25410581 -55.5 47.25 C-55.74685547 47.88421875 -55.99371094 48.5184375 -56.24804688 49.171875 C-58.52432413 55.12054623 -60.61417724 60.86378079 -60.4375 67.3125 C-60.41945313 68.17746094 -60.40140625 69.04242188 -60.3828125 69.93359375 C-60.35960937 70.57425781 -60.33640625 71.21492188 -60.3125 71.875 C-58.11735127 72.8343157 -58.11735127 72.8343157 -55.3125 72.875 C-50.61919438 69.77741829 -48.51792171 67.12365724 -46.3125 61.875 C-45.81200243 59.13060502 -45.40603347 56.44909706 -45.0625 53.6875 C-42.29151081 35.04209568 -34.52712651 14.91361104 -19.3125 2.875 C-12.98495292 -1.45893636 -7.40936755 -2.51638898 0 0 Z " fill="#F5E4D7" transform="translate(471.3125,55.125)"/>
<path d="M0 0 C3.38322185 0.93978385 4.34763306 1.23236229 6.375 3.9375 C12.04705623 27.62894575 -12.40565362 59.8265941 -23.96875 78.7578125 C-26.3673642 82.60441366 -28.94753485 86.28023781 -31.625 89.9375 C-37.16550113 89.36924347 -41.66215966 87.30863483 -46.625 84.9375 C-46.34785156 84.06867188 -46.07070312 83.19984375 -45.78515625 82.3046875 C-45.42292969 81.15226562 -45.06070313 79.99984375 -44.6875 78.8125 C-44.32785156 77.67554688 -43.96820313 76.53859375 -43.59765625 75.3671875 C-42.12017472 70.15743336 -41.49945608 65.29302111 -41.52734375 59.8828125 C-41.53056641 58.77421875 -41.53378906 57.665625 -41.53710938 56.5234375 C-41.54548828 55.38132813 -41.55386719 54.23921875 -41.5625 53.0625 C-41.56701172 51.8971875 -41.57152344 50.731875 -41.57617188 49.53125 C-41.58791219 46.66661355 -41.6043343 43.80208367 -41.625 40.9375 C-41.97167725 41.69667725 -42.31835449 42.45585449 -42.67553711 43.23803711 C-54.3641981 68.77763578 -54.3641981 68.77763578 -59.625 78.875 C-59.96136475 79.5342749 -60.29772949 80.1935498 -60.64428711 80.87280273 C-62.9221537 85.15124522 -65.01921341 87.33171341 -68.625 90.9375 C-73.575 87.9675 -78.525 84.9975 -83.625 81.9375 C-83.10550781 80.67679687 -82.58601563 79.41609375 -82.05078125 78.1171875 C-76.88364415 65.26508125 -73.25114675 52.52905058 -70.625 38.9375 C-70.34571655 37.51860474 -70.34571655 37.51860474 -70.06079102 36.07104492 C-69.13077305 31.19351628 -68.33278136 26.48245337 -68.3125 21.5 C-68.29574219 20.53191406 -68.27898437 19.56382813 -68.26171875 18.56640625 C-68.69307659 15.44485974 -69.33479205 14.09741166 -71.625 11.9375 C-76.21401011 10.87969428 -80.42620828 11.29984483 -84.5625 13.5 C-87.99422203 17.5556715 -89.4545696 21.29000614 -90 26.5625 C-89.59763566 30.18377903 -88.82309733 32.06306503 -86.625 34.9375 C-85.965 35.2675 -85.305 35.5975 -84.625 35.9375 C-86.06823469 40.67539165 -87.99726733 44.92608151 -90.25 49.3125 C-90.57484375 49.95316406 -90.8996875 50.59382813 -91.234375 51.25390625 C-92.02757407 52.81697501 -92.82577031 54.37750622 -93.625 55.9375 C-99.90069377 55.25260815 -102.29436598 54.36884644 -106.625 49.9375 C-110.09473538 43.19934495 -109.62314323 34.23065014 -107.9375 26.98046875 C-104.25241208 16.98466777 -97.70281457 11.53960206 -88.4375 6.82421875 C-84.49840808 5.5823106 -80.79447631 5.56920527 -76.6875 5.5625 C-75.90181641 5.53800781 -75.11613281 5.51351562 -74.30664062 5.48828125 C-68.91933085 5.461232 -65.90278444 6.38564262 -61.625 9.9375 C-56.01350791 16.30730183 -56.43289708 20.74812036 -56.4375 29 C-56.43685547 30.16837402 -56.43621094 31.33674805 -56.43554688 32.54052734 C-56.49157867 41.79723428 -57.1993429 50.79801965 -58.625 59.9375 C-49.98494767 43.30180544 -42.57915894 26.33550601 -35.625 8.9375 C-34.01914507 9.55814937 -32.41537383 10.1841918 -30.8125 10.8125 C-29.91917969 11.16054687 -29.02585937 11.50859375 -28.10546875 11.8671875 C-25.625 12.9375 -25.625 12.9375 -22.625 14.9375 C-22.7679248 15.67508545 -22.91084961 16.4126709 -23.05810547 17.17260742 C-24.7147286 26.60378458 -24.86064722 35.70406776 -24.75 45.25 C-24.73993778 46.78059302 -24.73081773 48.31119254 -24.72265625 49.84179688 C-24.70092788 53.5405027 -24.66658181 57.23895769 -24.625 60.9375 C-9.92827893 39.12181219 -9.92827893 39.12181219 -5.625 13.9375 C-6.47410801 11.50729432 -7.52579872 9.27330272 -8.625 6.9375 C-8.625 3.9375 -8.625 3.9375 -6.5625 1.6875 C-3.625 -0.0625 -3.625 -0.0625 0 0 Z " fill="#F5E5D7" transform="translate(170.625,69.0625)"/>
<path d="M0 0 C0.62438965 0.25700684 1.2487793 0.51401367 1.89208984 0.77880859 C13.3563629 5.6561397 22.48464603 13.02435662 31 22 C30.67 22.66 30.34 23.32 30 24 C29.51273438 23.45472656 29.02546875 22.90945312 28.5234375 22.34765625 C18.73056949 11.93160573 7.53190323 5.48064349 -6 1 C-6.94875 0.64808594 -7.8975 0.29617187 -8.875 -0.06640625 C-26.44886689 -5.31659898 -47.96688142 -2.31825776 -64 6 C-82.16786189 16.68967632 -95.93733907 32.09811093 -101.875 52.6875 C-105.8059623 72.365992 -103.97237176 93.09331927 -93.6640625 110.51171875 C-90.71562162 114.92053763 -87.48613499 119.00604219 -84 123 C-83.46890625 123.62648437 -82.9378125 124.25296875 -82.390625 124.8984375 C-71.18771627 137.15508518 -52.20022229 145.4444938 -35.640625 146.3203125 C-27.63236181 146.5204746 -19.76380306 146.06310851 -12 144 C-10.84113281 143.69320312 -9.68226563 143.38640625 -8.48828125 143.0703125 C10.16201972 137.51164109 24.58221371 126.00151703 34.3515625 109.0546875 C40.47003725 97.71666084 43.21433122 86.61154409 43.59375 73.6796875 C44 71 44 71 45.3671875 69.1171875 C47 68 47 68 49.625 68.25 C52 69 52 69 53 70 C54.74014609 89.09188853 48.51451438 107.89898198 36.5625 122.875 C35.05993355 124.5994219 33.54015254 126.30906329 32 128 C31.38640625 128.70640625 30.7728125 129.4128125 30.140625 130.140625 C17.2046694 144.18221783 -3.08010181 152.93143432 -22 154 C-23.68996094 154.09667969 -23.68996094 154.09667969 -25.4140625 154.1953125 C-46.18085628 154.80971468 -65.22983931 148.76304933 -81 135 C-81.97259766 134.2575 -81.97259766 134.2575 -82.96484375 133.5 C-93.29919072 125.31437864 -100.32261609 113.13196452 -105 101 C-105.4125 99.97132813 -105.825 98.94265625 -106.25 97.8828125 C-112.21396862 80.61215336 -110.64956836 58.24541725 -103.34375 41.5859375 C-93.31598856 22.28832682 -78.58289785 6.79414216 -58 -1 C-57.19691406 -1.30550781 -56.39382812 -1.61101563 -55.56640625 -1.92578125 C-38.2521151 -8.08651554 -16.85147264 -7.01451848 0 0 Z " fill="#F4E2D5" transform="translate(150,48)"/>
<path d="M0 0 C2.40786255 2.04408475 3.70616007 4.06460222 5.171875 6.84375 C7.151875 6.18375 9.131875 5.52375 11.171875 4.84375 C12.90600038 21.83817877 0.80798838 39.79974286 -8.828125 52.84375 C-9.158125 52.84375 -9.488125 52.84375 -9.828125 52.84375 C-9.87825726 48.23968013 -9.9141837 43.63577555 -9.93798828 39.03149414 C-9.94793128 37.47124457 -9.96149047 35.91101304 -9.97900391 34.35083008 C-10.08583874 24.57544278 -9.60470744 15.48905388 -7.828125 5.84375 C-11.458125 4.19375 -15.088125 2.54375 -18.828125 0.84375 C-20.37222364 3.93194729 -21.73679754 6.96061612 -23.04296875 10.1484375 C-29.0650334 24.70110831 -35.5646275 38.8687893 -42.828125 52.84375 C-43.158125 52.84375 -43.488125 52.84375 -43.828125 52.84375 C-43.68633462 50.61432252 -43.53952802 48.38521372 -43.390625 46.15625 C-43.30941406 44.91488281 -43.22820312 43.67351562 -43.14453125 42.39453125 C-42.828125 38.84375 -42.828125 38.84375 -42.32324219 36.49462891 C-41.36348122 31.35602704 -41.55865846 26.11903638 -41.515625 20.90625 C-41.47211914 19.15538086 -41.47211914 19.15538086 -41.42773438 17.36914062 C-41.35265672 8.79102319 -41.35265672 8.79102319 -45.828125 1.84375 C-48.83102678 -0.42374726 -51.26311848 -1.96791449 -54.828125 -3.15625 C-54.828125 -4.14625 -54.828125 -5.13625 -54.828125 -6.15625 C-53.178125 -6.15625 -51.528125 -6.15625 -49.828125 -6.15625 C-49.828125 -6.81625 -49.828125 -7.47625 -49.828125 -8.15625 C-31.93069089 -13.36277629 -15.50211381 -9.95893372 0 0 Z " fill="#692334" transform="translate(154.828125,78.15625)"/>
<path d="M0 0 C1.67542976 0.28604898 3.34385343 0.61781233 5 1 C5.89743863 16.45588749 1.24398164 29.84184848 -8.75 41.75 C-18.05918658 51.66092108 -30.7406328 59.13389483 -44.45336914 60.1887207 C-46.97216742 60.26669824 -49.48018803 60.2732598 -52 60.25 C-53.25683594 60.26160156 -53.25683594 60.26160156 -54.5390625 60.2734375 C-69.52506614 60.2270412 -82.13863967 54.29356578 -93 44 C-102.04277279 34.30563901 -109.46600759 21.66138046 -109 8 C-107.14453125 8.53515625 -107.14453125 8.53515625 -105 10 C-104.06027685 12.5108691 -103.34228074 14.85477018 -102.6875 17.4375 C-98.92344067 30.6050834 -91.8893264 40.71629323 -79.9375 47.8203125 C-66.6501737 54.69650386 -50.85883879 56.92073087 -36.3125 52.375 C-21.2375663 46.22939493 -11.72307045 36.84290068 -5 22 C-3.24064974 17.45501184 -2.47813622 13.00621416 -1.9375 8.1875 C-1.12781049 1.12781049 -1.12781049 1.12781049 0 0 Z " fill="#F3E1D4" transform="translate(174,118)"/>
<path d="M0 0 C3.625 0.25 3.625 0.25 5.3828125 1.51953125 C6.625 3.25 6.625 3.25 6.125 7.1875 C3.31489336 17.70826512 -0.90509155 29.04426841 -10.375 35.25 C-12.5 35.125 -12.5 35.125 -14.375 34.25 C-17.07136243 30.20545635 -17.0162416 26.91904037 -16.375 22.25 C-14.06677659 13.81055815 -10.70171981 7.30460282 -4.375 1.25 C-3.375 0.25 -3.375 0.25 0 0 Z " fill="#692435" transform="translate(395.375,93.75)"/>
<path d="M0 0 C1.0828125 0.37125 1.0828125 0.37125 2.1875 0.75 C1.74861543 7.72338809 0.20235998 12.94182046 -2.875 19.1875 C-3.2776709 20.01789795 -3.6803418 20.8482959 -4.09521484 21.70385742 C-8.7346669 30.99095202 -14.52392614 38.45068387 -22.8125 44.75 C-23.4725 44.75 -24.1325 44.75 -24.8125 44.75 C-22.36759864 29.84774411 -16.76829906 11.91923428 -5.27734375 1.4375 C-2.8125 -0.25 -2.8125 -0.25 0 0 Z " fill="#6A2435" transform="translate(465.8125,61.25)"/>
<path d="M0 0 C0.62438965 0.25700684 1.2487793 0.51401367 1.89208984 0.77880859 C13.3563629 5.6561397 22.48464603 13.02435662 31 22 C30.67 22.66 30.34 23.32 30 24 C29.51273437 23.45472656 29.02546875 22.90945312 28.5234375 22.34765625 C18.73056949 11.93160573 7.53190323 5.48064349 -6 1 C-6.94875 0.64808594 -7.8975 0.29617187 -8.875 -0.06640625 C-26.40507549 -5.3035163 -48.02203355 -2.3603171 -64 6 C-68.12913357 8.47916011 -72.08189276 11.20035955 -76 14 C-76.99 13.01 -77.98 12.02 -79 11 C-71.83957529 5.96532638 -64.79848654 1.56035598 -56.5625 -1.5 C-55.91345703 -1.74250488 -55.26441406 -1.98500977 -54.59570312 -2.23486328 C-37.69998037 -8.19168861 -16.41927128 -6.83461227 0 0 Z " fill="#ECD8CD" transform="translate(150,48)"/>
<path d="M0 0 C3.3 0 6.6 0 10 0 C11.5220959 1.5220959 11.12959521 2.88210082 11.1328125 5 C11.13474609 6.2065625 11.13474609 6.2065625 11.13671875 7.4375 C11.13285156 8.283125 11.12898438 9.12875 11.125 10 C11.12886719 10.845625 11.13273437 11.69125 11.13671875 12.5625 C11.13542969 13.366875 11.13414062 14.17125 11.1328125 15 C11.13168457 15.7425 11.13055664 16.485 11.12939453 17.25 C11 19 11 19 10 20 C6.7 20 3.4 20 0 20 C0 13.4 0 6.8 0 0 Z " fill="#F0DDD1" transform="translate(262,170)"/>
<path d="M0 0 C1.98 0 3.96 0 6 0 C6.66 2.64 7.32 5.28 8 8 C8.33 5.36 8.66 2.72 9 0 C10.32 0 11.64 0 13 0 C13 6.6 13 13.2 13 20 C11.02 20 9.04 20 7 20 C6.34 17.69 5.68 15.38 5 13 C4.67 15.31 4.34 17.62 4 20 C2.68 20 1.36 20 0 20 C0 13.4 0 6.8 0 0 Z " fill="#E5CEC4" transform="translate(351,170)"/>
<path d="M0 0 C2.97 0 5.94 0 9 0 C11.55948999 2.55948999 11.26068731 4.27207195 11.2734375 7.765625 C11.26570313 8.50296875 11.25796875 9.2403125 11.25 10 C11.25773437 10.73734375 11.26546875 11.4746875 11.2734375 12.234375 C11.2533196 17.7466804 11.2533196 17.7466804 9 20 C6.03 20 3.06 20 0 20 C0 13.4 0 6.8 0 0 Z " fill="#EAD4CA" transform="translate(464,170)"/>
<path d="M0 0 C1.91015625 0.23046875 1.91015625 0.23046875 3.91015625 2.23046875 C4.10867727 4.93969676 4.18855102 7.52350054 4.16015625 10.23046875 C4.16789063 10.9678125 4.175625 11.70515625 4.18359375 12.46484375 C4.16347585 17.97714915 4.16347585 17.97714915 1.91015625 20.23046875 C-0.80439331 20.55799109 -3.34215134 20.36131125 -6.08984375 20.23046875 C-7.61193965 18.70837285 -7.21943896 17.34836793 -7.22265625 15.23046875 C-7.22394531 14.42609375 -7.22523438 13.62171875 -7.2265625 12.79296875 C-7.22269531 11.94734375 -7.21882812 11.10171875 -7.21484375 10.23046875 C-7.21871094 9.38484375 -7.22257813 8.53921875 -7.2265625 7.66796875 C-7.22527344 6.86359375 -7.22398437 6.05921875 -7.22265625 5.23046875 C-7.22152832 4.48796875 -7.22040039 3.74546875 -7.21923828 2.98046875 C-6.91379904 -1.15045289 -3.37187966 0.0673152 0 0 Z " fill="#F0DDD0" transform="translate(565.08984375,169.76953125)"/>
<path d="M0 0 C1.91015625 0.23046875 1.91015625 0.23046875 3.91015625 2.23046875 C4.10867727 4.93969676 4.18855102 7.52350054 4.16015625 10.23046875 C4.16789063 10.9678125 4.175625 11.70515625 4.18359375 12.46484375 C4.16347585 17.97714915 4.16347585 17.97714915 1.91015625 20.23046875 C-0.80439331 20.55799109 -3.34215134 20.36131125 -6.08984375 20.23046875 C-7.61193965 18.70837285 -7.21943896 17.34836793 -7.22265625 15.23046875 C-7.22394531 14.42609375 -7.22523438 13.62171875 -7.2265625 12.79296875 C-7.22269531 11.94734375 -7.21882812 11.10171875 -7.21484375 10.23046875 C-7.21871094 9.38484375 -7.22257813 8.53921875 -7.2265625 7.66796875 C-7.22527344 6.86359375 -7.22398437 6.05921875 -7.22265625 5.23046875 C-7.22152832 4.48796875 -7.22040039 3.74546875 -7.21923828 2.98046875 C-6.91379904 -1.15045289 -3.37187966 0.0673152 0 0 Z " fill="#EDD9CD" transform="translate(531.08984375,169.76953125)"/>
<path d="M0 0 C2.31 0 4.62 0 7 0 C7.99 6.6 8.98 13.2 10 20 C8.68 20 7.36 20 6 20 C6 18.68 6 17.36 6 16 C4.02 16 2.04 16 0 16 C0 17.32 0 18.64 0 20 C-0.99 20 -1.98 20 -3 20 C-3.24613739 13.47735909 -2.53020433 7.35537418 -1 1 C-0.67 0.67 -0.34 0.34 0 0 Z " fill="#EAD4CA" transform="translate(282,170)"/>
<path d="M0 0 C2.31 0 4.62 0 7 0 C9.28584898 6.55276707 9.60594368 13.10401439 10 20 C9.01 20 8.02 20 7 20 C7 18.68 7 17.36 7 16 C5.02 16 3.04 16 1 16 C0.67 17.32 0.34 18.64 0 20 C-0.99 20 -1.98 20 -3 20 C-2.69140975 17.22867983 -2.3782967 14.45800014 -2.0625 11.6875 C-1.97548828 10.90181641 -1.88847656 10.11613281 -1.79882812 9.30664062 C-1.71181641 8.54931641 -1.62480469 7.79199219 -1.53515625 7.01171875 C-1.41732788 5.96697388 -1.41732788 5.96697388 -1.29711914 4.90112305 C-1 3 -1 3 0 0 Z " fill="#EAD4C9" transform="translate(591,170)"/>
<path d="M0 0 C2.33294775 -0.04241723 4.66702567 -0.04092937 7 0 C10.03945257 3.03945257 9.90048689 11.18463955 10.12890625 15.3515625 C10.1257168 16.90163406 10.07038527 18.451524 10 20 C9.01 20 8.02 20 7 20 C7 18.68 7 17.36 7 16 C5.02 16 3.04 16 1 16 C0.67 17.32 0.34 18.64 0 20 C-0.99 20 -1.98 20 -3 20 C-2.69140975 17.22867983 -2.3782967 14.45800014 -2.0625 11.6875 C-1.97548828 10.90181641 -1.88847656 10.11613281 -1.79882812 9.30664062 C-1.71181641 8.54931641 -1.62480469 7.79199219 -1.53515625 7.01171875 C-1.41732788 5.96697388 -1.41732788 5.96697388 -1.29711914 4.90112305 C-1 3 -1 3 0 0 Z " fill="#EAD5CA" transform="translate(429,170)"/>
<path d="M0 0 C1.98 0 3.96 0 6 0 C6.66 3.96 7.32 7.92 8 12 C8.33 8.04 8.66 4.08 9 0 C9.99 0 10.98 0 12 0 C12 6.6 12 13.2 12 20 C10.02 20 8.04 20 6 20 C5.34 16.37 4.68 12.74 4 9 C3.67 12.63 3.34 16.26 3 20 C2.01 20 1.02 20 0 20 C0 13.4 0 6.8 0 0 Z " fill="#FAEADC" transform="translate(445,170)"/>
<path d="M0 0 C1.32 0 2.64 0 4 0 C4 2.31 4 4.62 4 7 C5.32 7 6.64 7 8 7 C8 4.69 8 2.38 8 0 C8.99 0 9.98 0 11 0 C11 6.6 11 13.2 11 20 C10.01 20 9.02 20 8 20 C8 17.03 8 14.06 8 11 C6.68 11 5.36 11 4 11 C4 13.97 4 16.94 4 20 C2.68 20 1.36 20 0 20 C0 13.4 0 6.8 0 0 Z " fill="#E6CEC4" transform="translate(506,170)"/>
<path d="M0 0 C0.99 0 1.98 0 3 0 C3 5.61 3 11.22 3 17 C4.65 17 6.3 17 8 17 C8 11.39 8 5.78 8 0 C8.99 0 9.98 0 11 0 C11.02888514 3.14581423 11.04675923 6.29159469 11.0625 9.4375 C11.07087891 10.33533203 11.07925781 11.23316406 11.08789062 12.15820312 C11.09111328 13.01220703 11.09433594 13.86621094 11.09765625 14.74609375 C11.10289307 15.53685303 11.10812988 16.3276123 11.11352539 17.14233398 C11 19 11 19 10 20 C8.50261876 20.0979057 7.00057108 20.12974864 5.5 20.125 C4.6853125 20.12757813 3.870625 20.13015625 3.03125 20.1328125 C1 20 1 20 0 19 C-0.08651611 17.58429877 -0.10704904 16.164405 -0.09765625 14.74609375 C-0.09443359 13.89208984 -0.09121094 13.03808594 -0.08789062 12.15820312 C-0.07951172 11.26037109 -0.07113281 10.36253906 -0.0625 9.4375 C-0.05798828 8.53580078 -0.05347656 7.63410156 -0.04882812 6.70507812 C-0.03700225 4.46998686 -0.0205222 2.23502563 0 0 Z " fill="#F9E9DB" transform="translate(370,170)"/>
<path d="M0 0 C1.91015625 0.23046875 1.91015625 0.23046875 3.91015625 2.23046875 C4.03515625 4.85546875 4.03515625 4.85546875 3.91015625 7.23046875 C2.59015625 7.23046875 1.27015625 7.23046875 -0.08984375 7.23046875 C-0.08984375 5.91046875 -0.08984375 4.59046875 -0.08984375 3.23046875 C-1.40984375 3.23046875 -2.72984375 3.23046875 -4.08984375 3.23046875 C-4.08984375 7.85046875 -4.08984375 12.47046875 -4.08984375 17.23046875 C-2.76984375 17.23046875 -1.44984375 17.23046875 -0.08984375 17.23046875 C-0.08984375 15.91046875 -0.08984375 14.59046875 -0.08984375 13.23046875 C1.23015625 13.23046875 2.55015625 13.23046875 3.91015625 13.23046875 C4.03515625 15.60546875 4.03515625 15.60546875 3.91015625 18.23046875 C1.91015625 20.23046875 1.91015625 20.23046875 0 20.4609375 C-5.97873264 20.34157986 -5.97873264 20.34157986 -7.08984375 19.23046875 C-7.18821585 17.9000325 -7.22062967 16.56453531 -7.22265625 15.23046875 C-7.22394531 14.42609375 -7.22523438 13.62171875 -7.2265625 12.79296875 C-7.22269531 11.94734375 -7.21882812 11.10171875 -7.21484375 10.23046875 C-7.21871094 9.38484375 -7.22257813 8.53921875 -7.2265625 7.66796875 C-7.22527344 6.86359375 -7.22398437 6.05921875 -7.22265625 5.23046875 C-7.22152832 4.48796875 -7.22040039 3.74546875 -7.21923828 2.98046875 C-6.91379904 -1.15045289 -3.37187966 0.0673152 0 0 Z " fill="#F8E8DA" transform="translate(548.08984375,169.76953125)"/>
<path d="M0 0 C2.05078125 0.03255208 4.1015625 0.06510417 6.15234375 0.09765625 C6.48234375 1.41765625 6.81234375 2.73765625 7.15234375 4.09765625 C4.84234375 3.76765625 2.53234375 3.43765625 0.15234375 3.09765625 C1.30224468 6.0246768 2.0985731 7.06180915 4.77734375 8.84765625 C7.15234375 11.09765625 7.15234375 11.09765625 7.51171875 13.09375 C7.52734375 15.28515625 7.52734375 15.28515625 7.15234375 19.09765625 C5.25745423 20.99254577 2.58095229 20.27784737 0.0625 20.328125 C-1.84765625 20.09765625 -1.84765625 20.09765625 -3.84765625 18.09765625 C-3.97265625 15.47265625 -3.97265625 15.47265625 -3.84765625 13.09765625 C-2.52765625 13.09765625 -1.20765625 13.09765625 0.15234375 13.09765625 C0.15234375 14.41765625 0.15234375 15.73765625 0.15234375 17.09765625 C1.47234375 17.09765625 2.79234375 17.09765625 4.15234375 17.09765625 C3.1185479 13.71432439 2.46175107 12.31866148 -0.47265625 10.22265625 C-2.84765625 8.09765625 -2.84765625 8.09765625 -3.22265625 4.41015625 C-2.73978675 0.14480902 -2.73978675 0.14480902 0 0 Z " fill="#F2E0D3" transform="translate(638.84765625,169.90234375)"/>
<path d="M0 0 C1.670625 0.061875 1.670625 0.061875 3.375 0.125 C3.705 1.445 4.035 2.765 4.375 4.125 C2.065 3.795 -0.245 3.465 -2.625 3.125 C-1.92983572 6.30470029 -1.92983572 6.30470029 0.8125 7.5625 C3.60310766 9.26409003 4.38438779 10.06310773 5.375 13.125 C5.625 15.75 5.625 15.75 5.375 18.125 C3.375 20.125 3.375 20.125 1.46484375 20.35546875 C-4.51388889 20.23611111 -4.51388889 20.23611111 -5.625 19.125 C-5.66580783 17.12541636 -5.66754356 15.12454746 -5.625 13.125 C-4.635 13.125 -3.645 13.125 -2.625 13.125 C-2.625 14.445 -2.625 15.765 -2.625 17.125 C-1.305 17.125 0.015 17.125 1.375 17.125 C1.26158466 14.71622743 1.26158466 14.71622743 0.375 12.125 C-0.45 11.67125 -1.275 11.2175 -2.125 10.75 C-4.625 9.125 -4.625 9.125 -5.5625 5.5625 C-5.583125 4.428125 -5.60375 3.29375 -5.625 2.125 C-3.625 0.125 -3.625 0.125 0 0 Z " fill="#EDD9CE" transform="translate(407.625,169.875)"/>
<path d="M0 0 C1.670625 0.061875 1.670625 0.061875 3.375 0.125 C3.705 1.445 4.035 2.765 4.375 4.125 C2.065 3.795 -0.245 3.465 -2.625 3.125 C-1.84899467 6.4016993 -1.84899467 6.4016993 1.375 8.375 C4.15719967 10.57534541 4.37082658 11.1096105 5.375 14.8125 C5.375 15.905625 5.375 16.99875 5.375 18.125 C3.375 20.125 3.375 20.125 1.46484375 20.35546875 C-4.51388889 20.23611111 -4.51388889 20.23611111 -5.625 19.125 C-5.66580783 17.12541636 -5.66754356 15.12454746 -5.625 13.125 C-4.635 13.125 -3.645 13.125 -2.625 13.125 C-2.625 14.445 -2.625 15.765 -2.625 17.125 C-1.305 17.125 0.015 17.125 1.375 17.125 C1.26158466 14.71622743 1.26158466 14.71622743 0.375 12.125 C-0.45 11.67125 -1.275 11.2175 -2.125 10.75 C-4.625 9.125 -4.625 9.125 -5.5625 5.5625 C-5.583125 4.428125 -5.60375 3.29375 -5.625 2.125 C-3.625 0.125 -3.625 0.125 0 0 Z " fill="#EEDBCF" transform="translate(331.625,169.875)"/>
<path d="M0 0 C5.97873264 0.11935764 5.97873264 0.11935764 7.08984375 1.23046875 C7.13048207 2.8966399 7.13256475 4.5643497 7.08984375 6.23046875 C6.09984375 6.23046875 5.10984375 6.23046875 4.08984375 6.23046875 C4.08984375 5.24046875 4.08984375 4.25046875 4.08984375 3.23046875 C2.43984375 3.23046875 0.78984375 3.23046875 -0.91015625 3.23046875 C-0.91015625 7.85046875 -0.91015625 12.47046875 -0.91015625 17.23046875 C0.73984375 17.23046875 2.38984375 17.23046875 4.08984375 17.23046875 C4.08984375 15.91046875 4.08984375 14.59046875 4.08984375 13.23046875 C5.07984375 13.23046875 6.06984375 13.23046875 7.08984375 13.23046875 C7.13238731 15.23001621 7.13065158 17.23088511 7.08984375 19.23046875 C5.19495423 21.12535827 2.51845229 20.41065987 0 20.4609375 C-1.91015625 20.23046875 -1.91015625 20.23046875 -3.91015625 18.23046875 C-4.10867727 15.52124074 -4.18855102 12.93743696 -4.16015625 10.23046875 C-4.16789062 9.493125 -4.175625 8.75578125 -4.18359375 7.99609375 C-4.1562411 0.50146876 -4.1562411 0.50146876 0 0 Z " fill="#F0DDD1" transform="translate(492.91015625,169.76953125)"/>
<path d="M0 0 C3.3 0 6.6 0 10 0 C10 0.99 10 1.98 10 3 C7.69 3 5.38 3 3 3 C3 4.65 3 6.3 3 8 C4.98 8 6.96 8 9 8 C9 8.99 9 9.98 9 11 C7.02 11 5.04 11 3 11 C3 12.98 3 14.96 3 17 C5.31 17 7.62 17 10 17 C10 17.99 10 18.98 10 20 C6.7 20 3.4 20 0 20 C0 13.4 0 6.8 0 0 Z " fill="#F8E8DA" transform="translate(311,170)"/>
<path d="M0 0 C2.97 0 5.94 0 9 0 C9 0.99 9 1.98 9 3 C7.02 3 5.04 3 3 3 C3 4.65 3 6.3 3 8 C4.65 8 6.3 8 8 8 C8 8.99 8 9.98 8 11 C6.35 11 4.7 11 3 11 C3 12.98 3 14.96 3 17 C4.98 17 6.96 17 9 17 C9 17.99 9 18.98 9 20 C6.03 20 3.06 20 0 20 C0 13.4 0 6.8 0 0 Z " fill="#FBEBDD" transform="translate(621,170)"/>
<path d="M0 0 C3.96 0 7.92 0 12 0 C12 0.99 12 1.98 12 3 C10.68 3 9.36 3 8 3 C8 8.61 8 14.22 8 20 C6.68 20 5.36 20 4 20 C4 14.39 4 8.78 4 3 C2.68 3 1.36 3 0 3 C0 2.01 0 1.02 0 0 Z " fill="#E8D2C8" transform="translate(604,170)"/>
<path d="M0 0 C-2 1 -2 1 -4.8984375 0.0390625 C-6.04570312 -0.42757812 -7.19296875 -0.89421875 -8.375 -1.375 C-15.02091635 -4.06037026 -20.00577371 -5.19374227 -27.1875 -5.1875 C-27.94836914 -5.18814453 -28.70923828 -5.18878906 -29.49316406 -5.18945312 C-34.93826599 -5.13823797 -39.72629588 -4.4063211 -45 -3 C-48.0625 -2.875 -48.0625 -2.875 -50 -3 C-49 -5 -49 -5 -47.0234375 -5.8515625 C-31.15354238 -10.48613364 -14.13840167 -8.67252474 0 0 Z " fill="#DFC7BE" transform="translate(150,74)"/>
<path d="M0 0 C2.97 0 5.94 0 9 0 C11 2 11 2 11.1953125 5.6953125 C11.182009 7.17200108 11.15814835 8.64862358 11.125 10.125 C11.11597656 10.87910156 11.10695313 11.63320312 11.09765625 12.41015625 C11.0740687 14.27357254 11.03819719 16.13682593 11 18 C10.01 17.67 9.02 17.34 8 17 C8 12.38 8 7.76 8 3 C5.69 3 3.38 3 1 3 C1 8.61 1 14.22 1 20 C0.67 20 0.34 20 0 20 C0 13.4 0 6.8 0 0 Z " fill="#F5E4D7" transform="translate(464,170)"/>
<path d="M0 0 C3.63 0 7.26 0 11 0 C11 0.99 11 1.98 11 3 C9.68 3 8.36 3 7 3 C7 8.61 7 14.22 7 20 C6.01 20 5.02 20 4 20 C4 14.39 4 8.78 4 3 C2.68 3 1.36 3 0 3 C0 2.01 0 1.02 0 0 Z " fill="#FBECDD" transform="translate(386,170)"/>
<path d="M0 0 C3.63 0 7.26 0 11 0 C11 0.99 11 1.98 11 3 C9.68 3 8.36 3 7 3 C7 8.61 7 14.22 7 20 C6.01 20 5.02 20 4 20 C4 14.39 4 8.78 4 3 C2.68 3 1.36 3 0 3 C0 2.01 0 1.02 0 0 Z " fill="#FAEADC" transform="translate(295,170)"/>
<path d="M0 0 C0.99 0 1.98 0 3 0 C3 5.61 3 11.22 3 17 C4.98 17 6.96 17 9 17 C9 17.99 9 18.98 9 20 C6.03 20 3.06 20 0 20 C0 13.4 0 6.8 0 0 Z " fill="#FBECDE" transform="translate(575,170)"/>
<path d="M0 0 C1.98 0 3.96 0 6 0 C6 1.65 6 3.3 6 5 C5.34 5 4.68 5 4 5 C3.67 9.95 3.34 14.9 3 20 C2.01 20 1.02 20 0 20 C0 13.4 0 6.8 0 0 Z " fill="#F0DDD1" transform="translate(351,170)"/>
<path d="M0 0 C0.33 0 0.66 0 1 0 C1.02931979 4.14581819 1.04690557 8.29160925 1.0625 12.4375 C1.07087891 13.60216797 1.07925781 14.76683594 1.08789062 15.96679688 C1.10602151 22.40326202 0.86649876 28.62065875 0 35 C-0.33 35 -0.66 35 -1 35 C-1.33 27.08 -1.66 19.16 -2 11 C-2.99 11.495 -2.99 11.495 -4 12 C-3.33501617 7.61110675 -1.81242323 4.0188515 0 0 Z " fill="#793446" transform="translate(318,88)"/>
<path d="M0 0 C0.99 0 1.98 0 3 0 C3 6.6 3 13.2 3 20 C2.01 20 1.02 20 0 20 C0 16.7 0 13.4 0 10 C-1.32 10 -2.64 10 -4 10 C-4 9.34 -4 8.68 -4 8 C-2.68 8 -1.36 8 0 8 C0 5.36 0 2.72 0 0 Z " fill="#FCEEDF" transform="translate(514,170)"/>
<path d="M0 0 C0.66 0.33 1.32 0.66 2 1 C2.05382106 3.62527189 2.09358313 6.24944713 2.125 8.875 C2.14175781 9.62136719 2.15851562 10.36773437 2.17578125 11.13671875 C2.1933959 13.09194461 2.10320189 15.04742021 2 17 C0 19 0 19 -3.625 19.125 C-4.73875 19.08375 -5.8525 19.0425 -7 19 C-5 17 -5 17 -2 16 C-1.93941406 15.01257813 -1.87882813 14.02515625 -1.81640625 13.0078125 C-1.73261719 11.72648438 -1.64882813 10.44515625 -1.5625 9.125 C-1.48128906 7.84882813 -1.40007813 6.57265625 -1.31640625 5.2578125 C-1 2 -1 2 0 0 Z " fill="#F2E0D3" transform="translate(533,171)"/>
<path d="M0 0 C1.134375 0.020625 2.26875 0.04125 3.4375 0.0625 C3.4375 2.7025 3.4375 5.3425 3.4375 8.0625 C2.4475 8.5575 2.4475 8.5575 1.4375 9.0625 C1.1075 7.0825 0.7775 5.1025 0.4375 3.0625 C-0.2225 3.0625 -0.8825 3.0625 -1.5625 3.0625 C-1.8925 6.3625 -2.2225 9.6625 -2.5625 13.0625 C-4.9263665 8.33476701 -4.81643971 6.22594069 -4.5625 1.0625 C-3.5625 0.0625 -3.5625 0.0625 0 0 Z " fill="#F4E2D5" transform="translate(285.5625,169.9375)"/>
<path d="M0 0 C1.32 0 2.64 0 4 0 C4 4.62 4 9.24 4 14 C2.68 14 1.36 14 0 14 C0 9.38 0 4.76 0 0 Z " fill="#64112C" transform="translate(561,173)"/>
<path d="M0 0 C1.32 0 2.64 0 4 0 C4 4.62 4 9.24 4 14 C2.68 14 1.36 14 0 14 C0 9.38 0 4.76 0 0 Z " fill="#64142C" transform="translate(527,173)"/>
<path d="M0 0 C1.32 0 2.64 0 4 0 C4 4.62 4 9.24 4 14 C2.68 14 1.36 14 0 14 C0 9.38 0 4.76 0 0 Z " fill="#671B31" transform="translate(467,173)"/>
<path d="M0 0 C1.32 0 2.64 0 4 0 C4 4.62 4 9.24 4 14 C2.68 14 1.36 14 0 14 C0 9.38 0 4.76 0 0 Z " fill="#671931" transform="translate(266,173)"/>
<path d="M0 0 C2.64 0 5.28 0 8 0 C8.33 0.66 8.66 1.32 9 2 C8.67 2.66 8.34 3.32 8 4 C7.77049681 6.204364 7.58924067 8.41392173 7.4375 10.625 C7.35371094 11.81351563 7.26992188 13.00203125 7.18359375 14.2265625 C7.12300781 15.14179688 7.06242188 16.05703125 7 17 C6.67 17 6.34 17 6 17 C6 12.38 6 7.76 6 3 C4.68 3 3.36 3 2 3 C2 7.62 2 12.24 2 17 C1.67 17 1.34 17 1 17 C0.83201949 14.72926348 0.66565887 12.45840707 0.5 10.1875 C0.4071875 8.92292969 0.314375 7.65835938 0.21875 6.35546875 C0.08085219 4.24021483 0 2.11974408 0 0 Z " fill="#E6CFC4" transform="translate(559,170)"/>
<path d="M0 0 C0.33 0 0.66 0 1 0 C1 4.62 1 9.24 1 14 C2.32 14 3.64 14 5 14 C5 9.38 5 4.76 5 0 C5.33 0 5.66 0 6 0 C6.06058594 0.90363281 6.12117188 1.80726563 6.18359375 2.73828125 C6.26738281 3.91777344 6.35117187 5.09726563 6.4375 6.3125 C6.51871094 7.48425781 6.59992188 8.65601563 6.68359375 9.86328125 C6.8867371 13.02590958 6.8867371 13.02590958 8 16 C7.67 16.33 7.34 16.66 7 17 C4.36 17 1.72 17 -1 17 C-0.67 11.39 -0.34 5.78 0 0 Z " fill="#E6CFC5" transform="translate(265,173)"/>
<path d="M0 0 C2.33294775 -0.04241723 4.66702567 -0.04092937 7 0 C8 1 8 1 8.09765625 3.06640625 C8.08605469 3.89011719 8.07445312 4.71382812 8.0625 5.5625 C8.05347656 6.38878906 8.04445313 7.21507812 8.03515625 8.06640625 C8.02355469 8.70449219 8.01195312 9.34257812 8 10 C7.01 10.495 7.01 10.495 6 11 C4.64560332 8.29120665 4.93498549 5.99066732 5 3 C2.48916886 4.25541557 2.12874554 5.50063488 1 8 C0 7 0 7 -0.0625 3.4375 C-0.041875 2.303125 -0.02125 1.16875 0 0 Z " fill="#F3E1D5" transform="translate(591,170)"/>
<path d="M0 0 C3.36932864 4.49243819 3.37007917 6.95052266 3.1875 12.25 C3.16719727 13.36761719 3.16719727 13.36761719 3.14648438 14.5078125 C3.11127204 16.33885416 3.05746851 18.16952169 3 20 C2.01 20 1.02 20 0 20 C0 13.4 0 6.8 0 0 Z " fill="#FCEDDF" transform="translate(445,170)"/>
<path d="M0 0 C3.3 0 6.6 0 10 0 C10 0.99 10 1.98 10 3 C7.03 3 4.06 3 1 3 C1 8.61 1 14.22 1 20 C0.67 20 0.34 20 0 20 C0 13.4 0 6.8 0 0 Z " fill="#EFDCD0" transform="translate(311,170)"/>
<path d="M0 0 C6.0546875 -0.1953125 6.0546875 -0.1953125 8 0 C10 2 10 2 10.125 4.625 C10.08375 5.40875 10.0425 6.1925 10 7 C8.68 7 7.36 7 6 7 C6 5.68 6 4.36 6 3 C4.02 3 2.04 3 0 3 C0 2.01 0 1.02 0 0 Z " fill="#E9D4C9" transform="translate(542,170)"/>
<path d="M0 0 C2.31 0 4.62 0 7 0 C6.67 1.65 6.34 3.3 6 5 C5.67 4.34 5.34 3.68 5 3 C4.01 3.495 4.01 3.495 3 4 C2.34227572 7.02934491 2.34227572 7.02934491 2 10 C1.01 9.67 0.02 9.34 -1 9 C-0.67 6.03 -0.34 3.06 0 0 Z " fill="#F2DFD3" transform="translate(429,170)"/>
<path d="M0 0 C0.99 0 1.98 0 3 0 C3.04254356 1.99954746 3.04080783 4.00041636 3 6 C2 7 2 7 0.15234375 7.09765625 C-1.8984375 7.06510417 -3.94921875 7.03255208 -6 7 C-6.33 6.01 -6.66 5.02 -7 4 C-4.69 4 -2.38 4 0 4 C0 2.68 0 1.36 0 0 Z " fill="#F8E9DB" transform="translate(497,183)"/>
<path d="M0 0 C1.65 0 3.3 0 5 0 C5.33 2.97 5.66 5.94 6 9 C5.01 9 4.02 9 3 9 C3 7.35 3 5.7 3 4 C2.34 4 1.68 4 1 4 C0.67 5.32 0.34 6.64 0 8 C0 5.36 0 2.72 0 0 Z " fill="#EFDCD0" transform="translate(446,170)"/>
<path d="M0 0 C0.99 0 1.98 0 3 0 C3 1.32 3 2.64 3 4 C4.98 4 6.96 4 9 4 C9 4.99 9 5.98 9 7 C2.84765625 7.09765625 2.84765625 7.09765625 1 7 C0 6 0 6 -0.0625 2.9375 C-0.041875 1.968125 -0.02125 0.99875 0 0 Z " fill="#F7E7D9" transform="translate(402,183)"/>
<path d="M0 0 C0.33 0 0.66 0 1 0 C1.33 2.64 1.66 5.28 2 8 C1.34 8 0.68 8 0 8 C-0.66 10.97 -1.32 13.94 -2 17 C-2.33 17 -2.66 17 -3 17 C-3 11.72 -3 6.44 -3 1 C-2.01 1.33 -1.02 1.66 0 2 C0 1.34 0 0.68 0 0 Z " fill="#D1B2AD" transform="translate(357,173)"/>
<path d="M0 0 C0.99 0 1.98 0 3 0 C3 1.32 3 2.64 3 4 C4.98 4 6.96 4 9 4 C9 4.99 9 5.98 9 7 C2.84765625 7.09765625 2.84765625 7.09765625 1 7 C0 6 0 6 -0.0625 2.9375 C-0.041875 1.968125 -0.02125 0.99875 0 0 Z " fill="#F8E8DA" transform="translate(326,183)"/>
<path d="M0 0 C2.05078125 0.03255208 4.1015625 0.06510417 6.15234375 0.09765625 C6.48234375 1.41765625 6.81234375 2.73765625 7.15234375 4.09765625 C4.51234375 3.76765625 1.87234375 3.43765625 -0.84765625 3.09765625 C-1.50765625 4.41765625 -2.16765625 5.73765625 -2.84765625 7.09765625 C-2.89019981 5.09810879 -2.88846408 3.09723989 -2.84765625 1.09765625 C-1.84765625 0.09765625 -1.84765625 0.09765625 0 0 Z " fill="#F6E5D8" transform="translate(638.84765625,169.90234375)"/>
<path d="M0 0 C1.98 0.99 1.98 0.99 4 2 C4.83886169 4.67790463 4.81766414 7.1737941 5 10 C3.68 10 2.36 10 1 10 C0.67 6.7 0.34 3.4 0 0 Z " fill="#ECD7CC" transform="translate(65,126)"/>
<path d="M0 0 C6.15234375 -0.09765625 6.15234375 -0.09765625 8 0 C9 1 9 1 9.0625 3.5625 C9.041875 4.366875 9.02125 5.17125 9 6 C8.01 6 7.02 6 6 6 C6 5.01 6 4.02 6 3 C3.03 2.505 3.03 2.505 0 2 C0 1.34 0 0.68 0 0 Z " fill="#F7E7D9" transform="translate(491,170)"/>
<path d="M0 0 C1.670625 0.061875 1.670625 0.061875 3.375 0.125 C3.705 1.445 4.035 2.765 4.375 4.125 C2.065 3.795 -0.245 3.465 -2.625 3.125 C-2.955 4.115 -3.285 5.105 -3.625 6.125 C-4.285 4.805 -4.945 3.485 -5.625 2.125 C-3.625 0.125 -3.625 0.125 0 0 Z " fill="#F8E8DA" transform="translate(407.625,169.875)"/>
<path d="M0 0 C1.670625 0.061875 1.670625 0.061875 3.375 0.125 C3.705 1.445 4.035 2.765 4.375 4.125 C2.065 3.795 -0.245 3.465 -2.625 3.125 C-2.955 4.115 -3.285 5.105 -3.625 6.125 C-4.285 4.805 -4.945 3.485 -5.625 2.125 C-3.625 0.125 -3.625 0.125 0 0 Z " fill="#F8E9DB" transform="translate(331.625,169.875)"/>
<path d="M0 0 C0.33 0 0.66 0 1 0 C1.83854735 6.90188971 2.01593448 13.11422188 1 20 C0.67 20 0.34 20 0 20 C0 16.7 0 13.4 0 10 C-1.32 10 -2.64 10 -4 10 C-4 9.34 -4 8.68 -4 8 C-2.68 8 -1.36 8 0 8 C0 5.36 0 2.72 0 0 Z " fill="#F0DDD1" transform="translate(514,170)"/>
<path d="M0 0 C0.33 0 0.66 0 1 0 C1 2.31 1 4.62 1 7 C2.32 7.33 3.64 7.66 5 8 C3.68 8 2.36 8 1 8 C1 8.66 1 9.32 1 10 C2.32 10.33 3.64 10.66 5 11 C3.68 11 2.36 11 1 11 C1 13.97 1 16.94 1 20 C0.67 20 0.34 20 0 20 C-1.33257403 6.3667426 -1.33257403 6.3667426 0 0 Z " fill="#D4B6B0" transform="translate(509,170)"/>
<path d="M0 0 C0.66 0 1.32 0 2 0 C2.33 2.97 2.66 5.94 3 9 C1.68 9 0.36 9 -1 9 C-1.09765625 2.84765625 -1.09765625 2.84765625 -1 1 C-0.67 0.67 -0.34 0.34 0 0 Z " fill="#72273C" transform="translate(594,173)"/>
<path d="M0 0 C0.66 0 1.32 0 2 0 C2.33 2.97 2.66 5.94 3 9 C1.68 9 0.36 9 -1 9 C-0.67 6.03 -0.34 3.06 0 0 Z " fill="#70253A" transform="translate(284,173)"/>
<path d="M0 0 C0.66 0.33 1.32 0.66 2 1 C1.34 2.98 0.68 4.96 0 7 C-1.65 7 -3.3 7 -5 7 C-3.75023244 3.34683329 -3.32901247 2.21934164 0 0 Z " fill="#EDD8CD" transform="translate(52,84)"/>
<path d="M0 0 C0 0.99 0 1.98 0 3 C-4.455 3.495 -4.455 3.495 -9 4 C-9 3.34 -9 2.68 -9 2 C-9.99 1.67 -10.98 1.34 -12 1 C-7.95858806 0.36605303 -4.0934693 -0.12404452 0 0 Z " fill="#E2CAC1" transform="translate(113,43)"/>
<path d="M0 0 C1.32 0 2.64 0 4 0 C4.1875 2.375 4.1875 2.375 4 5 C3.01 5.66 2.02 6.32 1 7 C-0.32 6.34 -1.64 5.68 -3 5 C-2.01 5 -1.02 5 0 5 C0 3.35 0 1.7 0 0 Z " fill="#E9D4C9" transform="translate(548,183)"/>
<path d="M0 0 C1.32 0 2.64 0 4 0 C4 1.65 4 3.3 4 5 C4.99 5.33 5.98 5.66 7 6 C4.625 6.625 4.625 6.625 2 7 C0 5 0 5 -0.125 2.375 C-0.08375 1.59125 -0.0425 0.8075 0 0 Z " fill="#E8D2C8" transform="translate(635,183)"/>
<path d="M0 0 C0.66 0 1.32 0 2 0 C2.33 2.97 2.66 5.94 3 9 C1.68 9 0.36 9 -1 9 C-1.09765625 2.84765625 -1.09765625 2.84765625 -1 1 C-0.67 0.67 -0.34 0.34 0 0 Z " fill="#6F2339" transform="translate(432,173)"/>
<path d="M0 0 C0 0.33 0 0.66 0 1 C-9.41002278 3.29612756 -9.41002278 3.29612756 -14 3 C-13 1 -13 1 -10.375 -0.1875 C-6.55495663 -1.10714007 -3.82452397 -0.76490479 0 0 Z " fill="#D6BBB4" transform="translate(114,68)"/>
<path d="M0 0 C0.33 0.99 0.66 1.98 1 3 C-3.75 6 -3.75 6 -6 6 C-6 5.34 -6 4.68 -6 4 C-6.66 3.67 -7.32 3.34 -8 3 C-2.25 0 -2.25 0 0 0 Z " fill="#E9D4C9" transform="translate(89,49)"/>
<path d="M0 0 C0 3 0 3 -1.53125 4.82421875 C-2.1809375 5.43910156 -2.830625 6.05398437 -3.5 6.6875 C-4.1496875 7.31011719 -4.799375 7.93273437 -5.46875 8.57421875 C-5.9740625 9.04472656 -6.479375 9.51523438 -7 10 C-7.66 9.67 -8.32 9.34 -9 9 C-8.06725891 7.87105124 -7.12859878 6.74699124 -6.1875 5.625 C-5.66542969 4.99851562 -5.14335937 4.37203125 -4.60546875 3.7265625 C-3 2 -3 2 0 0 Z " fill="#F0DDD1" transform="translate(382,90)"/>
<path d="M0 0 C0.66 1.32 1.32 2.64 2 4 C-0.89675481 6.41396234 -3.59787701 8.38617243 -7 10 C-6.02223933 8.51990357 -5.0427506 7.04094856 -4.0625 5.5625 C-3.51722656 4.73878906 -2.97195313 3.91507813 -2.41015625 3.06640625 C-1 1 -1 1 0 0 Z " fill="#67172F" transform="translate(523,131)"/>
<path d="M0 0 C0.33 0.99 0.66 1.98 1 3 C-1.76264289 3.59732819 -4.16032769 4 -7 4 C-7 3.01 -7 2.02 -7 1 C-4.69 1.33 -2.38 1.66 0 2 C0 1.34 0 0.68 0 0 Z " fill="#7B3747" transform="translate(336,172)"/>
<path d="M0 0 C0.99 1.32 1.98 2.64 3 4 C2.01 5.98 1.02 7.96 0 10 C-0.33 10 -0.66 10 -1 10 C-0.67 6.7 -0.34 3.4 0 0 Z " fill="#803B4A" transform="translate(295,111)"/>
</svg>
